<svg id="Decorative_icon" data-name="Decorative icon" xmlns="http://www.w3.org/2000/svg" width="32" height="32" viewBox="0 0 32 32">
  <rect id="Placement_Area" data-name="Placement Area" width="32" height="32" fill="red" opacity="0"/>
  <g id="Background" fill="#3f3f3f" stroke="#3f3f3f" stroke-width="1">
    <rect width="32" height="32" rx="4" stroke="none"/>
    <rect x="0.5" y="0.5" width="31" height="31" rx="3.5" fill="none"/>
  </g>
  <g id="Icon">
    <rect id="Canvas" width="18" height="18" transform="translate(7 7)" fill="#ebebeb" opacity="0"/>
    <path id="Path_79553" data-name="Path 79553" d="M16.5,12h-1a.5.5,0,0,0-.5.5V15H3V12.5a.5.5,0,0,0-.5-.5h-1a.5.5,0,0,0-.5.5v4a.5.5,0,0,0,.5.5h15a.5.5,0,0,0,.5-.5v-4A.5.5,0,0,0,16.5,12Z" transform="translate(7 7)" fill="#ebebeb"/>
    <path id="Path_79554" data-name="Path 79554" d="M8.825,13.428a.25.25,0,0,0,.35,0L12.9,9.665A.391.391,0,0,0,13,9.4a.4.4,0,0,0-.4-.4H10V1.5A.5.5,0,0,0,9.5,1h-1a.5.5,0,0,0-.5.5V9H5.4a.4.4,0,0,0-.4.4.391.391,0,0,0,.1.263Z" transform="translate(7 7)" fill="#ebebeb"/>
  </g>
</svg>
